<?xml version="1.0" encoding="UTF-8" standalone="no"?>
<svg
   viewBox="0 0 512 512"
   id="vector"
   version="1.1"
   sodipodi:docname="left_breast.svg"
   width="512"
   height="512"
   inkscape:version="1.3 (0e150ed6c4, 2023-07-21)"
   inkscape:export-filename="left_breast.png"
   inkscape:export-xdpi="96"
   inkscape:export-ydpi="96"
   xmlns:inkscape="http://www.inkscape.org/namespaces/inkscape"
   xmlns:sodipodi="http://sodipodi.sourceforge.net/DTD/sodipodi-0.dtd"
   xmlns="http://www.w3.org/2000/svg"
   xmlns:svg="http://www.w3.org/2000/svg">
  <defs
     id="defs1" />
  <sodipodi:namedview
     id="namedview1"
     pagecolor="#ffffff"
     bordercolor="#666666"
     borderopacity="1.0"
     inkscape:showpageshadow="2"
     inkscape:pageopacity="0.0"
     inkscape:pagecheckerboard="0"
     inkscape:deskcolor="#d1d1d1"
     inkscape:zoom="0.14142136"
     inkscape:cx="-756.60425"
     inkscape:cy="-632.86057"
     inkscape:window-width="1326"
     inkscape:window-height="895"
     inkscape:window-x="460"
     inkscape:window-y="25"
     inkscape:window-maximized="0"
     inkscape:current-layer="vector" />
  <g
     id="g832"
     transform="matrix(4.7494016,0,0,4.747196,-29.460106,-831.46548)"
     style="stroke-width:0.795975">
    <path
       style="fill:none;stroke:#1a1a1a;stroke-width:2.10601748;stroke-linecap:round;stroke-linejoin:miter;stroke-miterlimit:4;stroke-dasharray:2.10601748,4.21203496;stroke-opacity:1;stroke-dashoffset:0"
       d="m 56.874954,178.01159 c 1.282886,20.57084 -16.541532,34.77258 -34.237227,49.01723 15.838681,33.45054 30.349138,32.81002 44.714192,28.43748"
       id="path1554"
       inkscape:connector-curvature="0"
       sodipodi:nodetypes="ccc" />
    <path
       style="fill:none;stroke:#1a1a1a;stroke-width:2.10601748;stroke-linecap:round;stroke-linejoin:miter;stroke-miterlimit:4;stroke-dasharray:2.10601748,4.21203496;stroke-opacity:1;stroke-dashoffset:0"
       d="m 57.433231,257.43285 -0.181107,22.82059"
       id="path1558"
       inkscape:connector-curvature="0" />
    <path
       style="fill:none;stroke:#1a1a1a;stroke-width:4.21204;stroke-linecap:butt;stroke-linejoin:miter;stroke-miterlimit:4;stroke-dasharray:none;stroke-opacity:1"
       d="m 89.094901,183.75868 c 1.28289,20.57084 -16.54153,34.77258 -34.237227,49.01723 15.838677,33.45054 30.349137,32.81002 44.714187,28.43748"
       id="path1554-9"
       inkscape:connector-curvature="0"
       sodipodi:nodetypes="ccc" />
    <path
       style="fill:none;stroke:#1a1a1a;stroke-width:2.10601748;stroke-linecap:round;stroke-linejoin:miter;stroke-miterlimit:4;stroke-dasharray:2.10601748,4.21203496;stroke-opacity:1;stroke-dashoffset:0"
       d="m 32.317722,220.30087 c 4.507393,6.2102 4.280158,12.06234 -3.180506,17.77342"
       id="path1556"
       inkscape:connector-curvature="0"
       sodipodi:nodetypes="cc" />
    <path
       style="fill:none;stroke:#1a1a1a;stroke-width:4.21204;stroke-linecap:butt;stroke-linejoin:miter;stroke-miterlimit:4;stroke-dasharray:none;stroke-opacity:1"
       d="m 64.309884,225.72644 c 4.507393,6.2102 4.280159,12.06234 -3.180506,17.77342"
       id="path1556-5"
       inkscape:connector-curvature="0"
       sodipodi:nodetypes="cc" />
  </g>
  <path
     id="path"
     style="fill:#1a1a1a;fill-opacity:1;stroke:#1a1a1a;stroke-width:5;stroke-dasharray:none"
     d="m 46.503906,226.54883 c -0.890581,-0.007 -1.637949,0.64607 -2.466468,0.92523 -1.300891,0.59198 -2.60178,1.18396 -3.902672,1.77594 -1.347531,2.95789 -2.698849,6.1286 -2.330078,9.45547 0,75.81888 -10e-7,151.63776 0,227.45664 1.205371,2.362 2.240396,5.10412 4.702892,6.4454 2.79747,1.76076 6.214302,1.64956 9.390076,1.58585 46.388933,0 92.777864,0 139.166794,0 2.43571,-1.20609 5.24132,-2.32255 6.56827,-4.87593 1.68388,-2.83687 1.52972,-6.23451 1.47184,-9.41001 0.0113,-7.33304 0.002,-14.66615 0.005,-21.99922 -1.18386,-2.35173 -2.21223,-5.04989 -4.62895,-6.41825 -2.70681,-1.69525 -6.01386,-1.7449 -9.10191,-1.64334 -32.44193,-0.16241 -64.88386,-0.32482 -97.325786,-0.48723 -0.171473,-64.92058 -0.340949,-129.84116 -0.513672,-194.76172 -1.195879,-2.48156 -2.366334,-5.317 -4.976655,-6.62278 -2.226111,-1.23055 -4.809294,-1.55447 -7.317094,-1.43918 -9.580469,0.004 -19.160938,0.009 -28.741407,0.0131 z" />
</svg>
