<?xml version="1.0" encoding="UTF-8" standalone="no"?>
<!-- Created with Inkscape (http://www.inkscape.org/) -->

<svg
   width="100mm"
   height="100mm"
   viewBox="0 0 100 100"
   version="1.1"
   id="svg5"
   inkscape:version="1.1.2 (0a00cf5339, 2022-02-04)"
   sodipodi:docname="icon.svg"
   inkscape:export-filename="/home/paul/code/android/BabyBuddyWidgets/resources/icon/icon.png"
   inkscape:export-xdpi="130.05"
   inkscape:export-ydpi="130.05"
   xmlns:inkscape="http://www.inkscape.org/namespaces/inkscape"
   xmlns:sodipodi="http://sodipodi.sourceforge.net/DTD/sodipodi-0.dtd"
   xmlns="http://www.w3.org/2000/svg"
   xmlns:svg="http://www.w3.org/2000/svg">
  <sodipodi:namedview
     id="namedview7"
     pagecolor="#ffffff"
     bordercolor="#666666"
     borderopacity="1.0"
     inkscape:pageshadow="2"
     inkscape:pageopacity="0.0"
     inkscape:pagecheckerboard="0"
     inkscape:document-units="mm"
     showgrid="false"
     inkscape:zoom="0.4692965"
     inkscape:cx="106.54245"
     inkscape:cy="169.4025"
     inkscape:window-width="1920"
     inkscape:window-height="1006"
     inkscape:window-x="0"
     inkscape:window-y="25"
     inkscape:window-maximized="1"
     inkscape:current-layer="g2785" />
  <defs
     id="defs2" />
  <g
     inkscape:label="Ebene 1"
     inkscape:groupmode="layer"
     id="layer1">
    <rect
       style="fill:#ececec;stroke:#000000;stroke-width:3;stroke-linejoin:round;stroke-miterlimit:4;stroke-dasharray:none"
       id="rect846"
       width="65.874893"
       height="88.13559"
       x="17.062553"
       y="5.9322052"
       ry="8.4147787"
       rx="8.4147768" />
    <g
       id="g2785"
       transform="translate(0,-6.879167)">
      <path
         id="path1052"
         style="fill:#39a9e8;fill-opacity:1;stroke:#000000;stroke-width:11.3386;stroke-linejoin:round;stroke-miterlimit:4;stroke-dasharray:none"
         d="M 188.97656,143.59961 A 87.650958,87.650958 0 0 0 101.32617,231.25 87.650958,87.650958 0 0 0 188.97656,318.90039 87.650958,87.650958 0 0 0 276.62695,231.25 87.650958,87.650958 0 0 0 188.97656,143.59961 Z m -36.24414,51.98437 a 15.473665,15.473665 0 0 1 15.47266,15.47461 15.473665,15.473665 0 0 1 -15.47266,15.47266 15.473665,15.473665 0 0 1 -15.47461,-15.47266 15.473665,15.473665 0 0 1 15.47461,-15.47461 z m 81.56446,0 a 15.473665,15.473665 0 0 1 15.4746,15.47461 15.473665,15.473665 0 0 1 -15.4746,15.47266 15.473665,15.473665 0 0 1 -15.47266,-15.47266 15.473665,15.473665 0 0 1 15.47266,-15.47461 z"
         transform="scale(0.26458333)" />
      <path
         style="fill:none;stroke:#000000;stroke-width:1.99999;stroke-linecap:butt;stroke-linejoin:miter;stroke-miterlimit:4;stroke-dasharray:none;stroke-opacity:1"
         d="m 50.331847,38.001126 c -15.113364,-4.846448 3.354072,-18.37752 6.694807,-10.819066 1.374297,9.004136 -20.182067,4.006392 -12.324525,-5.915899 1.790832,-2.180304 4.339618,-2.939648 7.016986,-3.104284"
         id="path1167"
         sodipodi:nodetypes="cccc" />
    </g>
    <circle
       style="fill:#000000;fill-opacity:1;stroke:#000000;stroke-width:2;stroke-linejoin:round;stroke-miterlimit:4;stroke-dasharray:none"
       id="path2809"
       cx="50"
       cy="86.794868"
       r="2.7362399" />
  </g>
</svg>
